<svg width="414" height="188" viewBox="0 0 414 188" fill="none" fill-opacity=".6" xmlns="http://www.w3.org/2000/svg">
<path d="M82.646 37.0917C85.7401 35.3054 89.552 35.3054 92.646 37.0917L133.614 60.7445L105.286 77.3318C100.901 72.9296 94.8325 70.2051 88.128 70.2051C81.1554 70.2051 74.871 73.1519 70.4523 77.8681L41.4416 60.8811L82.646 37.0917Z" fill="white"/>
<path d="M64.9303 87.4484L35.9141 70.4582V117.952L64.8222 101.025C64.2287 98.9258 63.9111 96.7109 63.9111 94.4219C63.9111 91.9977 64.2673 89.6567 64.9303 87.4484Z" fill="white"/>
<path d="M70.1924 110.694L41.8975 127.262L82.646 150.788C85.74 152.574 89.552 152.574 92.646 150.788L133.158 127.398L105.556 111.236C101.152 115.8 94.9714 118.639 88.128 118.639C81.0175 118.639 74.6227 115.574 70.1924 110.694Z" fill="white"/>
<path d="M111.22 101.739L139.376 118.226C139.377 118.162 139.378 118.098 139.378 118.034V70.1831L111.101 86.7403C111.908 89.154 112.345 91.7369 112.345 94.4219C112.345 96.9723 111.951 99.4305 111.22 101.739Z" fill="white"/>
<path fill-rule="evenodd" clip-rule="evenodd" d="M172.893 121.675C176.951 124.152 181.827 125.391 187.519 125.391C193.211 125.391 198.086 124.152 202.145 121.675C206.23 119.171 209.352 115.693 211.513 111.239C213.701 106.786 214.794 101.62 214.794 95.7437C214.794 89.867 213.701 84.7018 211.513 80.2482C209.352 75.7945 206.23 72.3291 202.145 69.852C198.086 67.3484 193.211 66.0967 187.519 66.0967C181.827 66.0967 176.951 67.3484 172.893 69.852C168.835 72.3291 165.712 75.7945 163.525 80.2482C161.364 84.7018 160.283 89.867 160.283 95.7437C160.283 101.62 161.364 106.786 163.525 111.239C165.712 115.693 168.835 119.171 172.893 121.675ZM197.046 113.888C194.516 115.601 191.34 116.444 187.519 116.418C183.698 116.365 180.509 115.482 177.953 113.769C175.423 112.056 173.526 109.671 172.261 106.614C170.996 103.531 170.363 99.9075 170.363 95.7437C170.363 91.5799 170.996 87.9432 172.261 84.8336C173.552 81.724 175.462 79.3127 177.992 77.5997C180.522 75.8868 183.698 75.0435 187.519 75.0698C191.34 75.1226 194.516 76.0054 197.046 77.7183C199.602 79.4313 201.512 81.8294 202.777 84.9127C204.069 87.9696 204.714 91.5799 204.714 95.7437C204.714 99.9075 204.069 103.544 202.777 106.654C201.512 109.763 199.602 112.175 197.046 113.888Z" fill="white"/>
<path d="M219.5 122.205C219.5 123.309 220.395 124.205 221.5 124.205H227.066C228.171 124.205 229.066 123.309 229.066 122.205V102.503C229.066 100.869 229.264 99.354 229.659 97.9573C230.054 96.5343 230.66 95.2694 231.477 94.1625C232.321 93.0557 233.401 92.1465 234.719 91.435C236.036 90.6444 237.512 90.1832 239.146 90.0515C239.759 90.0028 240.345 89.9883 240.904 90.0079C242.237 90.0546 243.534 89.0739 243.534 87.7406V83.2074C243.534 82.2297 242.827 81.3816 241.851 81.3272C241.12 81.2865 240.376 81.2957 239.62 81.355C238.276 81.4341 236.959 81.6844 235.668 82.1061C234.403 82.5014 233.243 83.0548 232.189 83.7663C230.95 84.5305 229.883 85.5056 228.987 86.6915C228.597 87.2118 228.241 87.7587 227.92 88.3321V83.5131C227.92 82.4086 227.024 81.5131 225.92 81.5131H221.5C220.395 81.5131 219.5 82.4086 219.5 83.5131V122.205Z" fill="white"/>
<path fill-rule="evenodd" clip-rule="evenodd" d="M268.431 125.391C264.267 125.391 260.775 124.402 257.955 122.426C257.357 122.007 256.791 121.556 256.256 121.073V122.205C256.256 123.309 255.36 124.205 254.256 124.205H249.836C248.731 124.205 247.836 123.309 247.836 122.205V69.2826C247.836 68.178 248.731 67.2826 249.836 67.2826H255.441C256.546 67.2826 257.441 68.178 257.441 69.2826V83.5817C257.572 83.4834 257.703 83.3868 257.837 83.292C260.604 81.3155 264.016 80.3272 268.075 80.3272C272.107 80.3272 275.599 81.3155 278.55 83.292C281.528 85.2421 283.834 87.9169 285.468 91.3164C287.102 94.6896 287.919 98.5371 287.919 102.859C287.919 107.128 287.115 110.963 285.507 114.362C283.9 117.762 281.633 120.45 278.708 122.426C275.783 124.402 272.357 125.391 268.431 125.391ZM257.323 95.5461C256.611 97.6279 256.256 100.066 256.256 102.859C256.256 105.626 256.611 108.064 257.323 110.172C258.061 112.28 259.207 113.927 260.762 115.113C262.343 116.273 264.412 116.852 266.968 116.852C269.445 116.852 271.488 116.233 273.095 114.995C274.703 113.756 275.888 112.083 276.653 109.974C277.443 107.84 277.839 105.468 277.839 102.859C277.839 100.276 277.443 97.931 276.653 95.8228C275.862 93.6882 274.637 92.0016 272.976 90.763C271.316 89.4981 269.208 88.8656 266.652 88.8656C264.227 88.8656 262.251 89.4585 260.722 90.6444C259.194 91.8039 258.061 93.4378 257.323 95.5461Z" fill="white"/>
<path d="M294.26 122.205C294.26 123.309 295.155 124.205 296.26 124.205H301.787C302.891 124.205 303.787 123.309 303.787 122.205V83.5131C303.787 82.4086 302.891 81.5131 301.787 81.5131H296.26C295.155 81.5131 294.26 82.4086 294.26 83.5131V122.205Z" fill="white"/>
<path d="M337.487 122.544C337.487 123.507 336.802 124.339 335.849 124.478C333.594 124.808 331.373 124.941 329.186 124.877C326.498 124.824 324.087 124.337 321.952 123.414C319.818 122.466 318.197 120.977 317.09 118.947C316.115 117.103 315.601 115.219 315.548 113.295C315.496 111.371 315.469 109.197 315.469 106.772V88.9842H309.722C308.617 88.9842 307.722 88.0888 307.722 86.9842V83.5131C307.722 82.4086 308.617 81.5131 309.722 81.5131H315.469V71.6543C315.469 70.5498 316.365 69.6543 317.469 69.6543H322.956C324.061 69.6543 324.956 70.5497 324.956 71.6543V81.5131H335.487C336.592 81.5131 337.487 82.4086 337.487 83.5131V86.9842C337.487 88.0888 336.592 88.9842 335.487 88.9842H324.956V106.219C324.956 107.932 324.97 109.434 324.996 110.725C325.049 112.017 325.325 113.071 325.826 113.888C326.775 115.469 328.29 116.352 330.372 116.536C331.833 116.666 333.438 116.652 335.185 116.496C336.402 116.387 337.487 117.317 337.487 118.539V122.544Z" fill="white"/>
<path d="M348.617 122.466C351.726 124.416 355.481 125.391 359.882 125.391C364.652 125.391 368.684 124.231 371.978 121.912C374.74 119.946 376.807 117.276 378.179 113.903C378.617 112.825 377.929 111.655 376.794 111.402L370.928 110.09C369.93 109.867 368.942 110.444 368.491 111.362C367.807 112.754 366.927 113.872 365.851 114.718C364.402 115.877 362.412 116.457 359.882 116.457C356.298 116.457 353.597 115.205 351.779 112.702C349.961 110.198 349.051 106.917 349.051 102.859C349.051 100.25 349.433 97.9178 350.198 95.8623C350.962 93.8068 352.148 92.1992 353.755 91.0397C355.363 89.8538 357.405 89.2609 359.882 89.2609C362.07 89.2609 364.02 89.9065 365.733 91.1978C366.977 92.1165 367.964 93.3062 368.693 94.767C369.171 95.7225 370.22 96.3146 371.251 96.0354L377.014 94.4746C378.061 94.191 378.703 93.1191 378.343 92.0957C377.169 88.7551 375.153 86.0577 372.295 84.0035C368.948 81.5527 364.85 80.3272 360.001 80.3272C355.679 80.3272 351.95 81.3023 348.814 83.2524C345.678 85.1762 343.254 87.8378 341.541 91.2374C339.854 94.6105 338.998 98.4844 338.971 102.859C338.998 107.155 339.828 111.002 341.462 114.402C343.122 117.801 345.507 120.489 348.617 122.466Z" fill="white"/>
<path d="M294.033 70.0095L296.716 67.3264C297.887 66.1548 299.787 66.1548 300.958 67.3264L303.641 70.0095C304.813 71.1811 304.813 73.0806 303.641 74.2521L300.958 76.9352C299.787 78.1068 297.887 78.1068 296.716 76.9352L294.033 74.2521C292.861 73.0806 292.861 71.1811 294.033 70.0095Z" fill="white"/>
</svg>
