<svg width="451" height="208" viewBox="0 0 451 208" fill="none" fill-opacity=".6" xmlns="http://www.w3.org/2000/svg">
<path fill-rule="evenodd" clip-rule="evenodd" d="M104.449 158C134.272 158 158.449 133.823 158.449 104C158.449 74.1766 134.272 50 104.449 50C74.6254 50 50.4487 74.1766 50.4487 104C50.4487 133.823 74.6254 158 104.449 158ZM108.106 75.6228C112.565 73.6187 117.687 73.7212 122.062 75.9022C128.535 79.1291 128.4 88.4104 121.836 91.4477L107.274 98.1862C105.884 98.8296 104.275 98.8 102.909 98.106L89.2197 91.1495C87.7966 90.4263 86.0568 90.9937 85.3336 92.4168C84.6105 93.8399 85.1779 95.5797 86.6009 96.3029L102.453 104.359C104.033 105.161 105.892 105.195 107.5 104.451L124.264 96.6939C135.227 91.6208 135.452 76.1185 124.641 70.7289C118.715 67.7744 111.776 67.6355 105.736 70.3504L75.9502 83.7393C73.8746 84.6722 72.5396 86.7361 72.5396 89.0117V98.5216C72.5396 100.714 73.7793 102.717 75.7411 103.695L102.434 117.003C104.058 117.812 105.968 117.812 107.592 117.003L129.069 106.296C130.281 105.691 131.706 106.573 131.706 107.928C131.706 108.619 131.315 109.251 130.696 109.56L107.244 121.252C105.839 121.952 104.187 121.952 102.782 121.252L80.8993 110.342C77.0562 108.426 72.5396 111.221 72.5396 115.515V120.644C72.5396 122.836 73.7793 124.84 75.7411 125.818L102.444 139.13C104.057 139.934 105.953 139.94 107.571 139.146L128.012 129.11C129.445 128.406 130.036 126.674 129.333 125.241C128.629 123.808 126.898 123.217 125.465 123.921L107.244 132.866C105.844 133.554 104.204 133.549 102.809 132.853L79.5913 121.278C78.8124 120.89 78.3202 120.094 78.3202 119.224C78.3202 117.519 80.1134 116.409 81.6392 117.17L102.434 127.537C104.058 128.347 105.968 128.347 107.592 127.537L134.285 114.23C136.247 113.252 137.487 111.248 137.487 109.056V104.981C137.487 100.687 132.97 97.8915 129.127 99.8074L107.244 110.717C105.839 111.417 104.187 111.417 102.782 110.717L81.0894 99.9022C79.3926 99.0563 78.3202 97.3234 78.3202 95.4274V92.2461C78.3202 90.2778 79.475 88.4927 81.2703 87.6857L108.106 75.6228Z" fill="white"/>
<path d="M192.198 88.5151V100.028H207.657V107.33H192.198V119.5H209.631V127H182.988V81.0156H209.631V88.5151H192.198Z" fill="white"/>
<path d="M224.579 95.8831C225.763 94.1288 227.386 92.7035 229.447 91.6071C231.553 90.5106 233.943 89.9624 236.618 89.9624C239.732 89.9624 242.539 90.7299 245.039 92.2649C247.582 93.7999 249.578 95.9928 251.025 98.8435C252.516 101.65 253.262 104.918 253.262 108.646C253.262 112.373 252.516 115.685 251.025 118.579C249.578 121.43 247.582 123.645 245.039 125.224C242.539 126.802 239.732 127.592 236.618 127.592C233.899 127.592 231.509 127.066 229.447 126.013C227.43 124.917 225.807 123.513 224.579 121.803V127H215.369V78.3184H224.579V95.8831ZM243.854 108.646C243.854 106.453 243.394 104.567 242.473 102.988C241.596 101.365 240.412 100.137 238.92 99.304C237.473 98.4707 235.894 98.0541 234.184 98.0541C232.517 98.0541 230.938 98.4926 229.447 99.3698C228 100.203 226.816 101.431 225.895 103.054C225.018 104.676 224.579 106.584 224.579 108.777C224.579 110.97 225.018 112.878 225.895 114.5C226.816 116.123 228 117.373 229.447 118.25C230.938 119.084 232.517 119.5 234.184 119.5C235.894 119.5 237.473 119.062 238.92 118.184C240.412 117.307 241.596 116.057 242.473 114.435C243.394 112.812 243.854 110.882 243.854 108.646Z" fill="white"/>
<path d="M273.506 127.592C269.998 127.592 266.84 126.824 264.033 125.289C261.226 123.71 259.011 121.496 257.389 118.645C255.81 115.794 255.021 112.505 255.021 108.777C255.021 105.049 255.832 101.76 257.455 98.9093C259.121 96.0586 261.38 93.8657 264.23 92.3307C267.081 90.7518 270.261 89.9624 273.769 89.9624C277.278 89.9624 280.458 90.7518 283.308 92.3307C286.159 93.8657 288.396 96.0586 290.018 98.9093C291.685 101.76 292.518 105.049 292.518 108.777C292.518 112.505 291.663 115.794 289.953 118.645C288.286 121.496 286.006 123.71 283.111 125.289C280.26 126.824 277.059 127.592 273.506 127.592ZM273.506 119.566C275.173 119.566 276.73 119.171 278.177 118.382C279.668 117.549 280.852 116.321 281.729 114.698C282.607 113.075 283.045 111.102 283.045 108.777C283.045 105.312 282.124 102.659 280.282 100.817C278.484 98.9312 276.269 97.9883 273.638 97.9883C271.006 97.9883 268.792 98.9312 266.993 100.817C265.239 102.659 264.362 105.312 264.362 108.777C264.362 112.242 265.217 114.917 266.928 116.803C268.682 118.645 270.875 119.566 273.506 119.566Z" fill="white"/>
<path d="M312.826 127.592C309.317 127.592 306.16 126.824 303.353 125.289C300.546 123.71 298.331 121.496 296.709 118.645C295.13 115.794 294.34 112.505 294.34 108.777C294.34 105.049 295.152 101.76 296.774 98.9093C298.441 96.0586 300.7 93.8657 303.55 92.3307C306.401 90.7518 309.581 89.9624 313.089 89.9624C316.598 89.9624 319.777 90.7518 322.628 92.3307C325.479 93.8657 327.716 96.0586 329.338 98.9093C331.005 101.76 331.838 105.049 331.838 108.777C331.838 112.505 330.983 115.794 329.272 118.645C327.606 121.496 325.325 123.71 322.431 125.289C319.58 126.824 316.378 127.592 312.826 127.592ZM312.826 119.566C314.493 119.566 316.05 119.171 317.497 118.382C318.988 117.549 320.172 116.321 321.049 114.698C321.926 113.075 322.365 111.102 322.365 108.777C322.365 105.312 321.444 102.659 319.602 100.817C317.804 98.9312 315.589 97.9883 312.958 97.9883C310.326 97.9883 308.111 98.9312 306.313 100.817C304.559 102.659 303.682 105.312 303.682 108.777C303.682 112.242 304.537 114.917 306.247 116.803C308.002 118.645 310.195 119.566 312.826 119.566Z" fill="white"/>
<path d="M357.54 127L345.173 111.474V127H335.963V78.3184H345.173V106.014L357.409 90.5545H369.382L353.33 108.843L369.513 127H357.54Z" fill="white"/>
<path d="M385.695 127.592C382.713 127.592 380.038 127.066 377.67 126.013C375.301 124.917 373.415 123.447 372.012 121.605C370.652 119.763 369.907 117.724 369.775 115.487H379.051C379.227 116.891 379.906 118.053 381.09 118.974C382.318 119.895 383.832 120.355 385.63 120.355C387.384 120.355 388.744 120.005 389.708 119.303C390.717 118.601 391.221 117.702 391.221 116.606C391.221 115.421 390.607 114.544 389.379 113.974C388.195 113.36 386.288 112.702 383.656 112.001C380.937 111.343 378.7 110.663 376.946 109.961C375.236 109.26 373.744 108.185 372.473 106.738C371.245 105.29 370.631 103.339 370.631 100.883C370.631 98.8654 371.201 97.0234 372.341 95.3568C373.525 93.6903 375.192 92.3746 377.341 91.4097C379.534 90.4448 382.099 89.9624 385.038 89.9624C389.379 89.9624 392.844 91.0588 395.432 93.2517C398.019 95.4007 399.445 98.3172 399.708 102.001H390.893C390.761 100.554 390.147 99.4136 389.051 98.5803C387.998 97.7032 386.573 97.2646 384.774 97.2646C383.108 97.2646 381.814 97.5716 380.893 98.1856C380.016 98.7996 379.577 99.6548 379.577 100.751C379.577 101.979 380.191 102.922 381.419 103.58C382.647 104.194 384.555 104.83 387.143 105.488C389.774 106.146 391.945 106.825 393.656 107.527C395.366 108.229 396.835 109.325 398.063 110.816C399.335 112.264 399.993 114.193 400.037 116.606C400.037 118.711 399.445 120.597 398.261 122.263C397.12 123.93 395.454 125.245 393.261 126.21C391.112 127.131 388.59 127.592 385.695 127.592Z" fill="white"/>
</svg>
