<svg width="410" height="185" viewBox="0 0 410 185" fill="none" fill-opacity=".6" xmlns="http://www.w3.org/2000/svg">
<path d="M224.245 114.123V64.1802H233.295V114.123H224.245Z" fill="white"/>
<path d="M147.646 65.5617L166.78 114.123H174.24L193.582 65.5617H183.566L170.623 99.6566L157.8 65.5617H147.646Z" fill="white"/>
<path fill-rule="evenodd" clip-rule="evenodd" d="M194.933 112.534C197.65 114.054 200.69 114.814 204.052 114.814C207.413 114.814 210.43 114.054 213.101 112.534C215.818 110.969 217.959 108.873 219.525 106.248C221.091 103.577 221.874 100.607 221.874 97.3374C221.874 94.0677 221.091 91.1434 219.525 88.5645C217.959 85.9396 215.818 83.8673 213.101 82.3476C210.43 80.7818 207.39 79.9989 203.983 79.9989C200.667 79.9989 197.65 80.7818 194.933 82.3476C192.216 83.8673 190.075 85.9396 188.509 88.5645C186.943 91.1434 186.161 94.0677 186.161 97.3374C186.161 100.607 186.943 103.577 188.509 106.248C190.121 108.873 192.262 110.969 194.933 112.534ZM208.473 105.281C207.183 106.018 205.686 106.387 203.983 106.387C202.325 106.387 200.851 106.018 199.562 105.281C198.272 104.498 197.259 103.439 196.522 102.104C195.785 100.722 195.417 99.1564 195.417 97.4064C195.417 95.6565 195.785 94.1138 196.522 92.7783C197.259 91.4428 198.272 90.4066 199.562 89.6698C200.851 88.8869 202.325 88.4954 203.983 88.4954C205.686 88.4954 207.183 88.8869 208.473 89.6698C209.762 90.4066 210.775 91.4428 211.512 92.7783C212.249 94.1138 212.617 95.6565 212.617 97.4064C212.617 99.1564 212.249 100.722 211.512 102.104C210.821 103.439 209.808 104.498 208.473 105.281Z" fill="white"/>
<path d="M244.214 112.949C246.516 114.192 249.141 114.814 252.089 114.814C255.036 114.814 257.638 114.215 259.894 113.018C262.197 111.775 263.97 110.048 265.213 107.837C266.503 105.627 267.147 103.048 267.147 100.1V80.7588H258.098V99.8932C258.098 101.966 257.569 103.577 256.509 104.729C255.45 105.88 253.977 106.456 252.089 106.456C250.845 106.456 249.763 106.202 248.842 105.696C247.921 105.189 247.23 104.452 246.77 103.485C246.309 102.472 246.079 101.275 246.079 99.8932V80.7588H236.961V100.1C236.961 103.002 237.605 105.558 238.895 107.768C240.184 109.979 241.957 111.705 244.214 112.949Z" fill="white"/>
<path d="M270.9 114.123V80.7588H279.949V83.6535C280.758 82.8632 281.679 82.1977 282.712 81.6568C284.646 80.5976 286.834 80.068 289.274 80.068C291.577 80.068 293.672 80.5976 295.56 81.6568C297.143 82.5058 298.45 83.6621 299.483 85.1256C300.599 83.7013 301.962 82.568 303.573 81.7259C305.6 80.6206 307.856 80.068 310.343 80.068C312.83 80.068 315.063 80.5976 317.043 81.6568C319.024 82.6699 320.589 84.1436 321.741 86.0777C322.892 88.0119 323.468 90.3145 323.468 92.9855V114.123H314.419V94.4361C314.419 92.5019 313.797 91.0053 312.553 89.9461C311.356 88.8408 309.859 88.2882 308.063 88.2882C306.912 88.2882 305.83 88.5415 304.817 89.0481C303.85 89.5086 303.09 90.1994 302.537 91.1204C301.985 92.0414 301.708 93.1467 301.708 94.4361V114.123H292.659V94.4361C292.659 92.5019 292.037 91.0053 290.794 89.9461C289.597 88.8408 288.1 88.2882 286.304 88.2882C285.107 88.2882 284.024 88.5415 283.057 89.0481C282.09 89.5086 281.33 90.1994 280.778 91.1204C280.225 92.0414 279.949 93.1467 279.949 94.4361V114.123H270.9Z" fill="white"/>
<path fill-rule="evenodd" clip-rule="evenodd" d="M333.98 112.603C336.697 114.077 339.806 114.814 343.306 114.814C346.023 114.814 348.533 114.33 350.835 113.363C353.184 112.396 355.164 110.969 356.776 109.081L351.457 103.762C350.444 104.913 349.247 105.788 347.865 106.387C346.483 106.939 344.941 107.215 343.237 107.215C341.349 107.215 339.691 106.824 338.263 106.041C336.836 105.212 335.73 104.061 334.947 102.587C334.653 101.98 334.417 101.332 334.241 100.644L358.641 100.584C358.825 99.8011 358.94 99.1104 358.986 98.5117C359.079 97.867 359.125 97.2453 359.125 96.6466C359.125 93.469 358.411 90.6369 356.983 88.1501C355.602 85.6172 353.667 83.637 351.181 82.2094C348.74 80.7357 345.908 79.9989 342.684 79.9989C339.414 79.9989 336.444 80.7818 333.773 82.3476C331.102 83.8673 328.984 85.9396 327.418 88.5645C325.898 91.1434 325.138 94.0907 325.138 97.4064C325.138 100.768 325.921 103.762 327.487 106.387C329.099 109.011 331.263 111.084 333.98 112.603ZM334.249 93.8729C334.41 93.2622 334.62 92.6901 334.878 92.1566C335.615 90.6829 336.651 89.5546 337.987 88.7718C339.322 87.9428 340.888 87.5284 342.684 87.5284C344.388 87.5284 345.816 87.8968 346.967 88.6336C348.164 89.3244 349.062 90.3375 349.661 91.673C349.971 92.316 350.218 93.0337 350.4 93.8261L334.249 93.8729Z" fill="white"/>
<path fill-rule="evenodd" clip-rule="evenodd" d="M92.0307 134.185C115.244 134.185 134.061 115.367 134.061 92.1538C134.061 68.9408 115.244 50.123 92.0307 50.123C68.8178 50.123 50 68.9408 50 92.1538C50 115.367 68.8178 134.185 92.0307 134.185ZM109.438 66.4277C109.937 66.8496 110.224 67.4697 110.224 68.123L110.223 76.5674L110.224 77.123L110.223 77.1894V105.457C110.223 110.366 106.243 114.345 101.334 114.345C96.4248 114.345 92.4453 110.366 92.4453 105.457C92.4453 100.547 96.4248 96.5674 101.334 96.5674C102.953 96.5674 104.471 97.0005 105.778 97.7568V79.7461L83.5557 83.4507V109.901C83.5557 114.81 79.5762 118.79 74.667 118.79C69.7578 118.79 65.7783 114.81 65.7783 109.901C65.7783 104.992 69.7578 101.012 74.667 101.012C76.2861 101.012 77.8047 101.445 79.1113 102.201L79.1123 81.5674L79.1113 81.0117L79.1123 80.9453V72.5674C79.1123 71.4814 79.8975 70.5542 80.9697 70.3755L107.636 65.9311C108.28 65.8237 108.939 66.0054 109.438 66.4277Z" fill="white"/>
</svg>
