<svg width="497" height="210" viewBox="0 0 497 210" fill="none" fill-opacity=".6" xmlns="http://www.w3.org/2000/svg">
<path d="M99.9314 159.15H64.5552L99.9314 105.655H135.308L99.9314 159.15Z" fill="white"/>
<path d="M86.9881 50.4336H123.227L86.9881 105.655H50.749L86.9881 50.4336Z" fill="white"/>
<path d="M207.477 96.9716C207.477 100.252 206.686 103.328 205.104 106.198C203.581 109.069 201.15 111.383 197.811 113.141C194.53 114.898 190.371 115.777 185.333 115.777H175.051V139.327H162.749V77.9908H185.333C190.078 77.9908 194.12 78.8109 197.459 80.4513C200.799 82.0916 203.288 84.347 204.929 87.2176C206.628 90.0881 207.477 93.3395 207.477 96.9716ZM184.805 105.847C188.203 105.847 190.722 105.085 192.363 103.562C194.003 101.98 194.823 99.7836 194.823 96.9716C194.823 90.9962 191.484 88.0085 184.805 88.0085H175.051V105.847H184.805Z" fill="white"/>
<path d="M224.999 98.2019C226.581 95.6242 228.631 93.6031 231.15 92.1385C233.728 90.674 236.657 89.9417 239.938 89.9417V102.859H236.686C232.82 102.859 229.891 103.767 227.899 105.583C225.966 107.399 224.999 110.563 224.999 115.074V139.327H212.697V90.6447H224.999V98.2019Z" fill="white"/>
<path d="M266.326 140.118C261.639 140.118 257.421 139.093 253.672 137.042C249.923 134.933 246.964 131.975 244.797 128.167C242.688 124.359 241.633 119.965 241.633 114.986C241.633 110.006 242.717 105.613 244.885 101.805C247.111 97.9968 250.128 95.0677 253.936 93.0173C257.744 90.9083 261.991 89.8538 266.678 89.8538C271.364 89.8538 275.611 90.9083 279.419 93.0173C283.227 95.0677 286.215 97.9968 288.383 101.805C290.609 105.613 291.722 110.006 291.722 114.986C291.722 119.965 290.579 124.359 288.295 128.167C286.068 131.975 283.022 134.933 279.156 137.042C275.348 139.093 271.071 140.118 266.326 140.118ZM266.326 129.397C268.552 129.397 270.632 128.87 272.565 127.816C274.557 126.702 276.139 125.062 277.31 122.895C278.482 120.727 279.068 118.091 279.068 114.986C279.068 110.358 277.838 106.814 275.377 104.353C272.975 101.834 270.017 100.574 266.502 100.574C262.987 100.574 260.028 101.834 257.627 104.353C255.283 106.814 254.112 110.358 254.112 114.986C254.112 119.614 255.254 123.187 257.539 125.707C259.882 128.167 262.811 129.397 266.326 129.397Z" fill="white"/>
<path d="M309.533 129.573H322.745V139.327H297.231V70.4336H309.533V129.573Z" fill="white"/>
<path d="M332.288 84.845C330.121 84.845 328.304 84.1713 326.84 82.8239C325.434 81.4179 324.731 79.6897 324.731 77.6393C324.731 75.5889 325.434 73.89 326.84 72.5426C328.304 71.1366 330.121 70.4336 332.288 70.4336C334.456 70.4336 336.242 71.1366 337.648 72.5426C339.113 73.89 339.845 75.5889 339.845 77.6393C339.845 79.6897 339.113 81.4179 337.648 82.8239C336.242 84.1713 334.456 84.845 332.288 84.845ZM338.351 90.6447V139.327H326.049V90.6447H338.351Z" fill="white"/>
<path d="M373.969 89.9417C379.768 89.9417 384.455 91.7871 388.029 95.4778C391.602 99.1099 393.389 104.207 393.389 110.768V139.327H381.086V112.438C381.086 108.571 380.12 105.613 378.187 103.562C376.253 101.453 373.617 100.399 370.278 100.399C366.88 100.399 364.185 101.453 362.193 103.562C360.26 105.613 359.294 108.571 359.294 112.438V139.327H346.991V90.6447H359.294V96.708C360.934 94.599 363.014 92.9587 365.533 91.7871C368.11 90.5568 370.922 89.9417 373.969 89.9417Z" fill="white"/>
<path d="M446.828 113.931C446.828 115.689 446.711 117.271 446.477 118.677H410.888C411.18 122.192 412.411 124.945 414.578 126.937C416.746 128.929 419.411 129.925 422.575 129.925C427.144 129.925 430.396 127.962 432.329 124.037H445.598C444.192 128.724 441.497 132.59 437.513 135.636C433.53 138.624 428.638 140.118 422.838 140.118C418.152 140.118 413.934 139.093 410.185 137.042C406.494 134.933 403.594 131.975 401.485 128.167C399.435 124.359 398.409 119.965 398.409 114.986C398.409 109.948 399.435 105.525 401.485 101.717C403.535 97.909 406.406 94.9798 410.097 92.9294C413.787 90.879 418.035 89.8538 422.838 89.8538C427.466 89.8538 431.597 90.8497 435.229 92.8415C438.919 94.8334 441.761 97.6746 443.753 101.365C445.803 104.997 446.828 109.186 446.828 113.931ZM434.086 110.416C434.028 107.253 432.885 104.734 430.659 102.859C428.433 100.926 425.709 99.9594 422.487 99.9594C419.441 99.9594 416.863 100.897 414.754 102.771C412.704 104.587 411.444 107.136 410.975 110.416H434.086Z" fill="white"/>
</svg>
